# xmcd
#
# Track frame offsets:
#	150
#	16986
#	36001
#	53654
#	72446
#	89762
#	107217
#	118745
#	136255
#	155105
#	171481
#
# Disc length: 2490 seconds
#
# Revision: 0
# Processed by: cddbd v1.5.2PL0 Copyright (c) Steve Scherf et al.
# Submitted via: EasyCDDAExtractor 15.3.0.1
#
DISCID=9d09b80b
DTITLE=Ricky Martin - A Quien Quiera Escuchar (Fan Edition) - CD 2
DYEAR=2015
DGENRE=Latin
TTITLE0=Adios (Supermatik Mix Radio Edit)
TTITLE1=Adios (DJ Riddler Radio Edit) (English Version)
TTITLE2=Adios (Danny Verde Radio Edit)
TTITLE3=Adios (Steven Redant Radio Edit)
TTITLE4=Adios (Ranchera Remix) (Featuring Julion Alvarez Y Su Norteña Band)
TTITLE5=Adios (Mambo Remix) (Featuring Nicky Jam)
TTITLE6=Adios (Casadiego Merengue Urbano Remix Radio Edit)
TTITLE7=Disparo Al Corazon (Bachata Remix)
TTITLE8=Disparo Al Corazon (Brian Cross Remix)
TTITLE9=Come With Me (7th Heaven Remix Radio Version)
TTITLE10=Vida (Portuguese Version)
EXTD=
EXTT0=
EXTT1=
EXTT2=
EXTT3=
EXTT4=
EXTT5=
EXTT6=
EXTT7=
EXTT8=
EXTT9=
EXTT10=
PLAYORDER=
